<svg xmlns="http://www.w3.org/2000/svg" xmlns:xlink="http://www.w3.org/1999/xlink" width="500" zoomAndPan="magnify" viewBox="0 0 375 374.999991" height="500" preserveAspectRatio="xMidYMid meet" version="1.0"><defs><clipPath id="7784e987ef"><path d="M 14.121094 19.972656 L 360.621094 19.972656 L 360.621094 240 L 14.121094 240 Z M 14.121094 19.972656 " clip-rule="nonzero"/></clipPath><clipPath id="20d2c6dd45"><path d="M 14.121094 228 L 360.621094 228 L 360.621094 286 L 14.121094 286 Z M 14.121094 228 " clip-rule="nonzero"/></clipPath><clipPath id="2c84ba7230"><path d="M 95 320 L 280 320 L 280 355.222656 L 95 355.222656 Z M 95 320 " clip-rule="nonzero"/></clipPath></defs><g clip-path="url(#7784e987ef)"><path fill="#fa9939" d="M 354.773438 239.617188 L 19.96875 239.617188 C 16.785156 239.617188 14.199219 237.03125 14.199219 233.839844 L 14.199219 43.097656 C 14.199219 30.347656 24.558594 19.972656 37.292969 19.972656 L 337.449219 19.972656 C 350.183594 19.972656 360.542969 30.347656 360.542969 43.097656 L 360.542969 233.839844 C 360.542969 237.03125 357.957031 239.617188 354.773438 239.617188 Z M 25.742188 228.058594 L 349 228.058594 L 349 43.097656 C 349 36.71875 343.816406 31.53125 337.449219 31.53125 L 37.292969 31.53125 C 30.925781 31.53125 25.742188 36.71875 25.742188 43.097656 Z M 25.742188 228.058594 " fill-opacity="1" fill-rule="nonzero"/></g><g clip-path="url(#20d2c6dd45)"><path fill="#fa9939" d="M 337.449219 285.859375 L 37.292969 285.859375 C 24.558594 285.859375 14.199219 275.484375 14.199219 262.734375 L 14.199219 233.839844 C 14.199219 230.648438 16.785156 228.058594 19.96875 228.058594 L 354.773438 228.058594 C 357.957031 228.058594 360.542969 230.648438 360.542969 233.839844 L 360.542969 262.734375 C 360.542969 275.484375 350.183594 285.859375 337.449219 285.859375 Z M 25.742188 239.617188 L 25.742188 262.734375 C 25.742188 269.117188 30.925781 274.300781 37.292969 274.300781 L 337.449219 274.300781 C 343.816406 274.300781 349 269.117188 349 262.734375 L 349 239.617188 Z M 25.742188 239.617188 " fill-opacity="1" fill-rule="nonzero"/></g><path fill="#fa9939" d="M 204.6875 262.738281 L 170.054688 262.738281 C 166.867188 262.738281 164.28125 260.148438 164.28125 256.960938 C 164.28125 253.769531 166.867188 251.179688 170.054688 251.179688 L 204.6875 251.179688 C 207.875 251.179688 210.460938 253.769531 210.460938 256.960938 C 210.460938 260.148438 207.875 262.738281 204.6875 262.738281 Z M 204.6875 262.738281 " fill-opacity="1" fill-rule="nonzero"/><path fill="#fa9939" d="M 331.683594 239.617188 L 43.058594 239.617188 C 39.875 239.617188 37.289062 237.03125 37.289062 233.839844 L 37.289062 48.875 C 37.289062 45.683594 39.875 43.09375 43.058594 43.09375 L 331.683594 43.09375 C 334.867188 43.09375 337.453125 45.683594 337.453125 48.875 L 337.453125 233.839844 C 337.453125 237.03125 334.867188 239.617188 331.683594 239.617188 Z M 48.832031 228.058594 L 325.910156 228.058594 L 325.910156 54.652344 L 48.832031 54.652344 Z M 48.832031 228.058594 " fill-opacity="1" fill-rule="nonzero"/><g clip-path="url(#2c84ba7230)"><path fill="#fa9939" d="M 262.414062 355.222656 L 112.328125 355.222656 C 102.78125 355.222656 95.011719 347.441406 95.011719 337.882812 C 95.011719 328.320312 102.78125 320.542969 112.328125 320.542969 L 262.414062 320.542969 C 271.960938 320.542969 279.730469 328.320312 279.730469 337.882812 C 279.730469 347.441406 271.960938 355.222656 262.414062 355.222656 Z M 112.328125 332.101562 C 109.144531 332.101562 106.558594 334.695312 106.558594 337.882812 C 106.558594 341.066406 109.144531 343.664062 112.328125 343.664062 L 262.414062 343.664062 C 265.597656 343.664062 268.183594 341.066406 268.183594 337.882812 C 268.183594 334.695312 265.597656 332.101562 262.414062 332.101562 Z M 112.328125 332.101562 " fill-opacity="1" fill-rule="nonzero"/></g><path fill="#fa9939" d="M 250.867188 332.101562 L 123.875 332.101562 C 120.6875 332.101562 118.101562 329.511719 118.101562 326.320312 C 118.101562 323.132812 120.6875 320.542969 123.875 320.542969 C 143.027344 320.542969 152.734375 306.929688 152.734375 280.082031 C 152.734375 276.890625 155.324219 274.300781 158.507812 274.300781 L 216.234375 274.300781 C 219.417969 274.300781 222.003906 276.890625 222.003906 280.082031 C 222.003906 306.929688 231.714844 320.542969 250.867188 320.542969 C 254.054688 320.542969 256.640625 323.132812 256.640625 326.320312 C 256.640625 329.511719 254.054688 332.101562 250.867188 332.101562 Z M 151.992188 320.542969 L 222.757812 320.542969 C 215.644531 312.65625 211.460938 300.917969 210.621094 285.859375 L 164.125 285.859375 C 163.28125 300.917969 159.097656 312.65625 151.992188 320.542969 Z M 151.992188 320.542969 " fill-opacity="1" fill-rule="nonzero"/><path fill="#fa9939" d="M 187.371094 239.617188 L 43.058594 239.617188 C 39.875 239.617188 37.289062 237.03125 37.289062 233.839844 L 37.289062 48.875 C 37.289062 45.683594 39.875 43.09375 43.058594 43.09375 L 187.371094 43.09375 C 190.558594 43.09375 193.144531 45.683594 193.144531 48.875 L 193.144531 233.839844 C 193.144531 237.03125 190.558594 239.617188 187.371094 239.617188 Z M 48.832031 228.058594 L 181.597656 228.058594 L 181.597656 54.652344 L 48.832031 54.652344 Z M 48.832031 228.058594 " fill-opacity="1" fill-rule="nonzero"/><path fill="#fa9939" d="M 106.550781 216.5 C 105.683594 216.5 104.800781 216.300781 103.972656 215.890625 C 101.117188 214.464844 99.964844 210.988281 101.390625 208.132812 L 118.707031 173.453125 C 120.132812 170.597656 123.609375 169.441406 126.453125 170.871094 C 129.304688 172.296875 130.460938 175.769531 129.035156 178.625 L 111.71875 213.308594 C 110.707031 215.332031 108.667969 216.5 106.550781 216.5 Z M 106.550781 216.5 " fill-opacity="1" fill-rule="nonzero"/><path fill="#fa9939" d="M 66.148438 199.15625 C 64.671875 199.15625 63.195312 198.589844 62.070312 197.464844 C 59.8125 195.203125 59.8125 191.550781 62.070312 189.292969 L 79.386719 171.949219 C 81.636719 169.691406 85.296875 169.691406 87.546875 171.949219 C 89.804688 174.210938 89.804688 177.863281 87.546875 180.125 L 70.230469 197.464844 C 69.105469 198.589844 67.628906 199.15625 66.148438 199.15625 Z M 66.148438 199.15625 " fill-opacity="1" fill-rule="nonzero"/><path fill="#fa9939" d="M 83.46875 216.5 C 81.988281 216.5 80.511719 215.933594 79.386719 214.804688 L 62.070312 197.464844 C 59.8125 195.203125 59.8125 191.550781 62.070312 189.292969 C 64.320312 187.03125 67.980469 187.03125 70.230469 189.292969 L 87.546875 206.632812 C 89.804688 208.890625 89.804688 212.542969 87.546875 214.804688 C 86.421875 215.933594 84.945312 216.5 83.46875 216.5 Z M 83.46875 216.5 " fill-opacity="1" fill-rule="nonzero"/><path fill="#fa9939" d="M 164.28125 199.15625 C 162.804688 199.15625 161.324219 198.589844 160.199219 197.464844 L 142.882812 180.125 C 140.625 177.863281 140.625 174.210938 142.882812 171.949219 C 145.132812 169.691406 148.792969 169.691406 151.046875 171.949219 L 168.363281 189.292969 C 170.621094 191.550781 170.621094 195.203125 168.363281 197.464844 C 167.238281 198.589844 165.757812 199.15625 164.28125 199.15625 Z M 164.28125 199.15625 " fill-opacity="1" fill-rule="nonzero"/><path fill="#fa9939" d="M 146.964844 216.5 C 145.484375 216.5 144.007812 215.933594 142.882812 214.804688 C 140.625 212.542969 140.625 208.890625 142.882812 206.632812 L 160.199219 189.292969 C 162.453125 187.03125 166.109375 187.03125 168.363281 189.292969 C 170.621094 191.550781 170.621094 195.203125 168.363281 197.464844 L 151.046875 214.804688 C 149.917969 215.933594 148.441406 216.5 146.964844 216.5 Z M 146.964844 216.5 " fill-opacity="1" fill-rule="nonzero"/><path fill="#fa9939" d="M 118.101562 118.234375 C 114.914062 118.234375 112.328125 115.644531 112.328125 112.457031 L 112.328125 71.992188 C 112.328125 68.804688 114.914062 66.214844 118.101562 66.214844 C 121.289062 66.214844 123.875 68.804688 123.875 71.992188 L 123.875 112.457031 C 123.875 115.644531 121.289062 118.234375 118.101562 118.234375 Z M 118.101562 118.234375 " fill-opacity="1" fill-rule="nonzero"/><path fill="#fa9939" d="M 118.101562 152.917969 C 114.914062 152.917969 112.328125 150.328125 112.328125 147.136719 L 112.328125 135.574219 C 112.328125 132.386719 114.914062 129.796875 118.101562 129.796875 C 121.289062 129.796875 123.875 132.386719 123.875 135.574219 L 123.875 147.136719 C 123.875 150.328125 121.289062 152.917969 118.101562 152.917969 Z M 118.101562 152.917969 " fill-opacity="1" fill-rule="nonzero"/><path fill="#fa9939" d="M 268.183594 77.773438 L 210.460938 77.773438 C 207.273438 77.773438 204.6875 75.183594 204.6875 71.992188 C 204.6875 68.804688 207.273438 66.214844 210.460938 66.214844 L 268.183594 66.214844 C 271.371094 66.214844 273.957031 68.804688 273.957031 71.992188 C 273.957031 75.183594 271.371094 77.773438 268.183594 77.773438 Z M 268.183594 77.773438 " fill-opacity="1" fill-rule="nonzero"/><path fill="#fa9939" d="M 308.59375 77.773438 L 291.273438 77.773438 C 288.089844 77.773438 285.503906 75.183594 285.503906 71.992188 C 285.503906 68.804688 288.089844 66.214844 291.273438 66.214844 L 308.59375 66.214844 C 311.777344 66.214844 314.363281 68.804688 314.363281 71.992188 C 314.363281 75.183594 311.777344 77.773438 308.59375 77.773438 Z M 308.59375 77.773438 " fill-opacity="1" fill-rule="nonzero"/><path fill="#fa9939" d="M 308.59375 100.894531 L 250.867188 100.894531 C 247.679688 100.894531 245.09375 98.304688 245.09375 95.113281 C 245.09375 91.925781 247.679688 89.335938 250.867188 89.335938 L 308.59375 89.335938 C 311.777344 89.335938 314.363281 91.925781 314.363281 95.113281 C 314.363281 98.304688 311.777344 100.894531 308.59375 100.894531 Z M 308.59375 100.894531 " fill-opacity="1" fill-rule="nonzero"/><path fill="#fa9939" d="M 227.777344 100.894531 L 210.460938 100.894531 C 207.273438 100.894531 204.6875 98.304688 204.6875 95.113281 C 204.6875 91.925781 207.273438 89.335938 210.460938 89.335938 L 227.777344 89.335938 C 230.964844 89.335938 233.550781 91.925781 233.550781 95.113281 C 233.550781 98.304688 230.964844 100.894531 227.777344 100.894531 Z M 227.777344 100.894531 " fill-opacity="1" fill-rule="nonzero"/><path fill="#fa9939" d="M 268.183594 124.015625 L 210.460938 124.015625 C 207.273438 124.015625 204.6875 121.425781 204.6875 118.234375 C 204.6875 115.042969 207.273438 112.457031 210.460938 112.457031 L 268.183594 112.457031 C 271.371094 112.457031 273.957031 115.042969 273.957031 118.234375 C 273.957031 121.425781 271.371094 124.015625 268.183594 124.015625 Z M 268.183594 124.015625 " fill-opacity="1" fill-rule="nonzero"/><path fill="#fa9939" d="M 308.59375 124.015625 L 291.273438 124.015625 C 288.089844 124.015625 285.503906 121.425781 285.503906 118.234375 C 285.503906 115.042969 288.089844 112.457031 291.273438 112.457031 L 308.59375 112.457031 C 311.777344 112.457031 314.363281 115.042969 314.363281 118.234375 C 314.363281 121.425781 311.777344 124.015625 308.59375 124.015625 Z M 308.59375 124.015625 " fill-opacity="1" fill-rule="nonzero"/><path fill="#fa9939" d="M 308.59375 147.136719 L 250.867188 147.136719 C 247.679688 147.136719 245.09375 144.546875 245.09375 141.355469 C 245.09375 138.164062 247.679688 135.574219 250.867188 135.574219 L 308.59375 135.574219 C 311.777344 135.574219 314.363281 138.164062 314.363281 141.355469 C 314.363281 144.546875 311.777344 147.136719 308.59375 147.136719 Z M 308.59375 147.136719 " fill-opacity="1" fill-rule="nonzero"/><path fill="#fa9939" d="M 227.777344 147.136719 L 210.460938 147.136719 C 207.273438 147.136719 204.6875 144.546875 204.6875 141.355469 C 204.6875 138.164062 207.273438 135.574219 210.460938 135.574219 L 227.777344 135.574219 C 230.964844 135.574219 233.550781 138.164062 233.550781 141.355469 C 233.550781 144.546875 230.964844 147.136719 227.777344 147.136719 Z M 227.777344 147.136719 " fill-opacity="1" fill-rule="nonzero"/><path fill="#fa9939" d="M 308.59375 216.5 L 250.867188 216.5 C 247.679688 216.5 245.09375 213.910156 245.09375 210.71875 C 245.09375 207.527344 247.679688 204.9375 250.867188 204.9375 L 308.59375 204.9375 C 311.777344 204.9375 314.363281 207.527344 314.363281 210.71875 C 314.363281 213.910156 311.777344 216.5 308.59375 216.5 Z M 308.59375 216.5 " fill-opacity="1" fill-rule="nonzero"/><path fill="#fa9939" d="M 227.777344 216.5 L 210.460938 216.5 C 207.273438 216.5 204.6875 213.910156 204.6875 210.71875 C 204.6875 207.527344 207.273438 204.9375 210.460938 204.9375 L 227.777344 204.9375 C 230.964844 204.9375 233.550781 207.527344 233.550781 210.71875 C 233.550781 213.910156 230.964844 216.5 227.777344 216.5 Z M 227.777344 216.5 " fill-opacity="1" fill-rule="nonzero"/><path fill="#fa9939" d="M 268.183594 170.257812 L 210.460938 170.257812 C 207.273438 170.257812 204.6875 167.667969 204.6875 164.476562 C 204.6875 161.285156 207.273438 158.695312 210.460938 158.695312 L 268.183594 158.695312 C 271.371094 158.695312 273.957031 161.285156 273.957031 164.476562 C 273.957031 167.667969 271.371094 170.257812 268.183594 170.257812 Z M 268.183594 170.257812 " fill-opacity="1" fill-rule="nonzero"/><path fill="#fa9939" d="M 308.59375 170.257812 L 291.273438 170.257812 C 288.089844 170.257812 285.503906 167.667969 285.503906 164.476562 C 285.503906 161.285156 288.089844 158.695312 291.273438 158.695312 L 308.59375 158.695312 C 311.777344 158.695312 314.363281 161.285156 314.363281 164.476562 C 314.363281 167.667969 311.777344 170.257812 308.59375 170.257812 Z M 308.59375 170.257812 " fill-opacity="1" fill-rule="nonzero"/><path fill="#fa9939" d="M 308.59375 193.378906 L 250.867188 193.378906 C 247.679688 193.378906 245.09375 190.789062 245.09375 187.597656 C 245.09375 184.40625 247.679688 181.816406 250.867188 181.816406 L 308.59375 181.816406 C 311.777344 181.816406 314.363281 184.40625 314.363281 187.597656 C 314.363281 190.789062 311.777344 193.378906 308.59375 193.378906 Z M 308.59375 193.378906 " fill-opacity="1" fill-rule="nonzero"/><path fill="#fa9939" d="M 227.777344 193.378906 L 210.460938 193.378906 C 207.273438 193.378906 204.6875 190.789062 204.6875 187.597656 C 204.6875 184.40625 207.273438 181.816406 210.460938 181.816406 L 227.777344 181.816406 C 230.964844 181.816406 233.550781 184.40625 233.550781 187.597656 C 233.550781 190.789062 230.964844 193.378906 227.777344 193.378906 Z M 227.777344 193.378906 " fill-opacity="1" fill-rule="nonzero"/></svg>