<svg xmlns="http://www.w3.org/2000/svg" xmlns:xlink="http://www.w3.org/1999/xlink" width="500" zoomAndPan="magnify" viewBox="0 0 375 374.999991" height="500" preserveAspectRatio="xMidYMid meet" version="1.0"><defs><g/><clipPath id="8e6d7427a7"><path d="M 101.753906 37.5 L 273.503906 37.5 L 273.503906 147 L 101.753906 147 Z M 101.753906 37.5 " clip-rule="nonzero"/></clipPath><clipPath id="16c825427f"><path d="M 101.753906 140 L 273.503906 140 L 273.503906 169 L 101.753906 169 Z M 101.753906 140 " clip-rule="nonzero"/></clipPath><clipPath id="dfa14de3fc"><path d="M 141 186 L 234 186 L 234 203.25 L 141 203.25 Z M 141 186 " clip-rule="nonzero"/></clipPath></defs><g clip-path="url(#8e6d7427a7)"><path fill="#001f3d" d="M 270.605469 146.09375 L 104.652344 146.09375 C 103.074219 146.09375 101.792969 144.816406 101.792969 143.238281 L 101.792969 48.933594 C 101.792969 42.628906 106.929688 37.5 113.242188 37.5 L 262.019531 37.5 C 268.332031 37.5 273.46875 42.628906 273.46875 48.933594 L 273.46875 143.238281 C 273.46875 144.816406 272.183594 146.09375 270.605469 146.09375 Z M 107.515625 140.378906 L 267.746094 140.378906 L 267.746094 48.933594 C 267.746094 45.777344 265.175781 43.214844 262.019531 43.214844 L 113.242188 43.214844 C 110.085938 43.214844 107.515625 45.777344 107.515625 48.933594 Z M 107.515625 140.378906 " fill-opacity="1" fill-rule="nonzero"/></g><g clip-path="url(#16c825427f)"><path fill="#001f3d" d="M 262.019531 168.957031 L 113.242188 168.957031 C 106.929688 168.957031 101.792969 163.828125 101.792969 157.523438 L 101.792969 143.238281 C 101.792969 141.660156 103.074219 140.378906 104.652344 140.378906 L 270.605469 140.378906 C 272.183594 140.378906 273.46875 141.660156 273.46875 143.238281 L 273.46875 157.523438 C 273.46875 163.828125 268.332031 168.957031 262.019531 168.957031 Z M 107.515625 146.09375 L 107.515625 157.523438 C 107.515625 160.679688 110.085938 163.242188 113.242188 163.242188 L 262.019531 163.242188 C 265.175781 163.242188 267.746094 160.679688 267.746094 157.523438 L 267.746094 146.09375 Z M 107.515625 146.09375 " fill-opacity="1" fill-rule="nonzero"/></g><path fill="#001f3d" d="M 196.214844 157.527344 L 179.046875 157.527344 C 177.46875 157.527344 176.183594 156.246094 176.183594 154.667969 C 176.183594 153.089844 177.46875 151.808594 179.046875 151.808594 L 196.214844 151.808594 C 197.792969 151.808594 199.074219 153.089844 199.074219 154.667969 C 199.074219 156.246094 197.792969 157.527344 196.214844 157.527344 Z M 196.214844 157.527344 " fill-opacity="1" fill-rule="nonzero"/><path fill="#001f3d" d="M 259.160156 146.09375 L 116.097656 146.09375 C 114.519531 146.09375 113.238281 144.816406 113.238281 143.238281 L 113.238281 51.789062 C 113.238281 50.210938 114.519531 48.929688 116.097656 48.929688 L 259.160156 48.929688 C 260.742188 48.929688 262.023438 50.210938 262.023438 51.789062 L 262.023438 143.238281 C 262.023438 144.816406 260.742188 146.09375 259.160156 146.09375 Z M 118.960938 140.378906 L 256.300781 140.378906 L 256.300781 54.648438 L 118.960938 54.648438 Z M 118.960938 140.378906 " fill-opacity="1" fill-rule="nonzero"/><g clip-path="url(#dfa14de3fc)"><path fill="#001f3d" d="M 224.824219 203.25 L 150.433594 203.25 C 145.703125 203.25 141.851562 199.402344 141.851562 194.675781 C 141.851562 189.949219 145.703125 186.101562 150.433594 186.101562 L 224.824219 186.101562 C 229.558594 186.101562 233.410156 189.949219 233.410156 194.675781 C 233.410156 199.402344 229.558594 203.25 224.824219 203.25 Z M 150.433594 191.820312 C 148.855469 191.820312 147.574219 193.101562 147.574219 194.675781 C 147.574219 196.25 148.855469 197.535156 150.433594 197.535156 L 224.824219 197.535156 C 226.40625 197.535156 227.6875 196.25 227.6875 194.675781 C 227.6875 193.101562 226.40625 191.820312 224.824219 191.820312 Z M 150.433594 191.820312 " fill-opacity="1" fill-rule="nonzero"/></g><path fill="#001f3d" d="M 219.105469 191.820312 L 156.15625 191.820312 C 154.578125 191.820312 153.296875 190.539062 153.296875 188.960938 C 153.296875 187.382812 154.578125 186.101562 156.15625 186.101562 C 165.648438 186.101562 170.460938 179.375 170.460938 166.097656 C 170.460938 164.523438 171.746094 163.242188 173.324219 163.242188 L 201.9375 163.242188 C 203.515625 163.242188 204.796875 164.523438 204.796875 166.097656 C 204.796875 179.375 209.609375 186.101562 219.105469 186.101562 C 220.683594 186.101562 221.964844 187.382812 221.964844 188.960938 C 221.964844 190.539062 220.683594 191.820312 219.105469 191.820312 Z M 170.09375 186.101562 L 205.167969 186.101562 C 201.644531 182.207031 199.570312 176.402344 199.15625 168.957031 L 176.109375 168.957031 C 175.691406 176.402344 173.617188 182.207031 170.09375 186.101562 Z M 170.09375 186.101562 " fill-opacity="1" fill-rule="nonzero"/><path fill="#001f3d" d="M 187.628906 146.09375 L 116.097656 146.09375 C 114.519531 146.09375 113.238281 144.816406 113.238281 143.238281 L 113.238281 51.789062 C 113.238281 50.210938 114.519531 48.929688 116.097656 48.929688 L 187.628906 48.929688 C 189.210938 48.929688 190.492188 50.210938 190.492188 51.789062 L 190.492188 143.238281 C 190.492188 144.816406 189.210938 146.09375 187.628906 146.09375 Z M 118.960938 140.378906 L 184.769531 140.378906 L 184.769531 54.648438 L 118.960938 54.648438 Z M 118.960938 140.378906 " fill-opacity="1" fill-rule="nonzero"/><path fill="#001f3d" d="M 147.570312 134.664062 C 147.140625 134.664062 146.703125 134.566406 146.289062 134.363281 C 144.878906 133.65625 144.304688 131.941406 145.011719 130.527344 L 153.59375 113.382812 C 154.300781 111.96875 156.023438 111.398438 157.433594 112.105469 C 158.847656 112.808594 159.421875 114.527344 158.714844 115.941406 L 150.128906 133.085938 C 149.628906 134.085938 148.621094 134.664062 147.570312 134.664062 Z M 147.570312 134.664062 " fill-opacity="1" fill-rule="nonzero"/><path fill="#001f3d" d="M 127.542969 126.089844 C 126.8125 126.089844 126.078125 125.808594 125.519531 125.253906 C 124.402344 124.136719 124.402344 122.328125 125.519531 121.210938 L 134.105469 112.640625 C 135.21875 111.523438 137.035156 111.523438 138.152344 112.640625 C 139.269531 113.757812 139.269531 115.5625 138.152344 116.679688 L 129.566406 125.253906 C 129.007812 125.808594 128.277344 126.089844 127.542969 126.089844 Z M 127.542969 126.089844 " fill-opacity="1" fill-rule="nonzero"/><path fill="#001f3d" d="M 136.128906 134.664062 C 135.394531 134.664062 134.664062 134.382812 134.105469 133.828125 L 125.519531 125.253906 C 124.402344 124.136719 124.402344 122.328125 125.519531 121.210938 C 126.636719 120.09375 128.449219 120.09375 129.566406 121.210938 L 138.152344 129.785156 C 139.269531 130.902344 139.269531 132.710938 138.152344 133.828125 C 137.59375 134.382812 136.859375 134.664062 136.128906 134.664062 Z M 136.128906 134.664062 " fill-opacity="1" fill-rule="nonzero"/><path fill="#001f3d" d="M 176.183594 126.089844 C 175.453125 126.089844 174.71875 125.808594 174.160156 125.253906 L 165.578125 116.679688 C 164.460938 115.5625 164.460938 113.757812 165.578125 112.640625 C 166.695312 111.523438 168.507812 111.523438 169.625 112.640625 L 178.207031 121.210938 C 179.328125 122.328125 179.328125 124.136719 178.207031 125.253906 C 177.648438 125.808594 176.917969 126.089844 176.183594 126.089844 Z M 176.183594 126.089844 " fill-opacity="1" fill-rule="nonzero"/><path fill="#001f3d" d="M 167.601562 134.664062 C 166.867188 134.664062 166.136719 134.382812 165.578125 133.828125 C 164.460938 132.710938 164.460938 130.902344 165.578125 129.785156 L 174.160156 121.210938 C 175.277344 120.09375 177.09375 120.09375 178.207031 121.210938 C 179.328125 122.328125 179.328125 124.136719 178.207031 125.253906 L 169.625 133.828125 C 169.066406 134.382812 168.332031 134.664062 167.601562 134.664062 Z M 167.601562 134.664062 " fill-opacity="1" fill-rule="nonzero"/><path fill="#001f3d" d="M 153.296875 86.082031 C 151.714844 86.082031 150.433594 84.800781 150.433594 83.222656 L 150.433594 63.21875 C 150.433594 61.640625 151.714844 60.363281 153.296875 60.363281 C 154.875 60.363281 156.15625 61.640625 156.15625 63.21875 L 156.15625 83.222656 C 156.15625 84.800781 154.875 86.082031 153.296875 86.082031 Z M 153.296875 86.082031 " fill-opacity="1" fill-rule="nonzero"/><path fill="#001f3d" d="M 153.296875 103.226562 C 151.714844 103.226562 150.433594 101.949219 150.433594 100.371094 L 150.433594 94.65625 C 150.433594 93.078125 151.714844 91.796875 153.296875 91.796875 C 154.875 91.796875 156.15625 93.078125 156.15625 94.65625 L 156.15625 100.371094 C 156.15625 101.949219 154.875 103.226562 153.296875 103.226562 Z M 153.296875 103.226562 " fill-opacity="1" fill-rule="nonzero"/><path fill="#001f3d" d="M 227.6875 66.078125 L 199.074219 66.078125 C 197.496094 66.078125 196.214844 64.796875 196.214844 63.21875 C 196.214844 61.640625 197.496094 60.363281 199.074219 60.363281 L 227.6875 60.363281 C 229.265625 60.363281 230.546875 61.640625 230.546875 63.21875 C 230.546875 64.796875 229.265625 66.078125 227.6875 66.078125 Z M 227.6875 66.078125 " fill-opacity="1" fill-rule="nonzero"/><path fill="#001f3d" d="M 247.714844 66.078125 L 239.132812 66.078125 C 237.554688 66.078125 236.269531 64.796875 236.269531 63.21875 C 236.269531 61.640625 237.554688 60.363281 239.132812 60.363281 L 247.714844 60.363281 C 249.296875 60.363281 250.578125 61.640625 250.578125 63.21875 C 250.578125 64.796875 249.296875 66.078125 247.714844 66.078125 Z M 247.714844 66.078125 " fill-opacity="1" fill-rule="nonzero"/><path fill="#001f3d" d="M 247.714844 77.507812 L 219.105469 77.507812 C 217.523438 77.507812 216.242188 76.226562 216.242188 74.652344 C 216.242188 73.074219 217.523438 71.792969 219.105469 71.792969 L 247.714844 71.792969 C 249.296875 71.792969 250.578125 73.074219 250.578125 74.652344 C 250.578125 76.226562 249.296875 77.507812 247.714844 77.507812 Z M 247.714844 77.507812 " fill-opacity="1" fill-rule="nonzero"/><path fill="#001f3d" d="M 207.660156 77.507812 L 199.074219 77.507812 C 197.496094 77.507812 196.214844 76.226562 196.214844 74.652344 C 196.214844 73.074219 197.496094 71.792969 199.074219 71.792969 L 207.660156 71.792969 C 209.238281 71.792969 210.519531 73.074219 210.519531 74.652344 C 210.519531 76.226562 209.238281 77.507812 207.660156 77.507812 Z M 207.660156 77.507812 " fill-opacity="1" fill-rule="nonzero"/><path fill="#001f3d" d="M 227.6875 88.941406 L 199.074219 88.941406 C 197.496094 88.941406 196.214844 87.660156 196.214844 86.082031 C 196.214844 84.503906 197.496094 83.222656 199.074219 83.222656 L 227.6875 83.222656 C 229.265625 83.222656 230.546875 84.503906 230.546875 86.082031 C 230.546875 87.660156 229.265625 88.941406 227.6875 88.941406 Z M 227.6875 88.941406 " fill-opacity="1" fill-rule="nonzero"/><path fill="#001f3d" d="M 247.714844 88.941406 L 239.132812 88.941406 C 237.554688 88.941406 236.269531 87.660156 236.269531 86.082031 C 236.269531 84.503906 237.554688 83.222656 239.132812 83.222656 L 247.714844 83.222656 C 249.296875 83.222656 250.578125 84.503906 250.578125 86.082031 C 250.578125 87.660156 249.296875 88.941406 247.714844 88.941406 Z M 247.714844 88.941406 " fill-opacity="1" fill-rule="nonzero"/><path fill="#001f3d" d="M 247.714844 100.371094 L 219.105469 100.371094 C 217.523438 100.371094 216.242188 99.089844 216.242188 97.511719 C 216.242188 95.933594 217.523438 94.65625 219.105469 94.65625 L 247.714844 94.65625 C 249.296875 94.65625 250.578125 95.933594 250.578125 97.511719 C 250.578125 99.089844 249.296875 100.371094 247.714844 100.371094 Z M 247.714844 100.371094 " fill-opacity="1" fill-rule="nonzero"/><path fill="#001f3d" d="M 207.660156 100.371094 L 199.074219 100.371094 C 197.496094 100.371094 196.214844 99.089844 196.214844 97.511719 C 196.214844 95.933594 197.496094 94.65625 199.074219 94.65625 L 207.660156 94.65625 C 209.238281 94.65625 210.519531 95.933594 210.519531 97.511719 C 210.519531 99.089844 209.238281 100.371094 207.660156 100.371094 Z M 207.660156 100.371094 " fill-opacity="1" fill-rule="nonzero"/><path fill="#001f3d" d="M 247.714844 134.664062 L 219.105469 134.664062 C 217.523438 134.664062 216.242188 133.382812 216.242188 131.804688 C 216.242188 130.230469 217.523438 128.949219 219.105469 128.949219 L 247.714844 128.949219 C 249.296875 128.949219 250.578125 130.230469 250.578125 131.804688 C 250.578125 133.382812 249.296875 134.664062 247.714844 134.664062 Z M 247.714844 134.664062 " fill-opacity="1" fill-rule="nonzero"/><path fill="#001f3d" d="M 207.660156 134.664062 L 199.074219 134.664062 C 197.496094 134.664062 196.214844 133.382812 196.214844 131.804688 C 196.214844 130.230469 197.496094 128.949219 199.074219 128.949219 L 207.660156 128.949219 C 209.238281 128.949219 210.519531 130.230469 210.519531 131.804688 C 210.519531 133.382812 209.238281 134.664062 207.660156 134.664062 Z M 207.660156 134.664062 " fill-opacity="1" fill-rule="nonzero"/><path fill="#001f3d" d="M 227.6875 111.800781 L 199.074219 111.800781 C 197.496094 111.800781 196.214844 110.519531 196.214844 108.945312 C 196.214844 107.367188 197.496094 106.085938 199.074219 106.085938 L 227.6875 106.085938 C 229.265625 106.085938 230.546875 107.367188 230.546875 108.945312 C 230.546875 110.519531 229.265625 111.800781 227.6875 111.800781 Z M 227.6875 111.800781 " fill-opacity="1" fill-rule="nonzero"/><path fill="#001f3d" d="M 247.714844 111.800781 L 239.132812 111.800781 C 237.554688 111.800781 236.269531 110.519531 236.269531 108.945312 C 236.269531 107.367188 237.554688 106.085938 239.132812 106.085938 L 247.714844 106.085938 C 249.296875 106.085938 250.578125 107.367188 250.578125 108.945312 C 250.578125 110.519531 249.296875 111.800781 247.714844 111.800781 Z M 247.714844 111.800781 " fill-opacity="1" fill-rule="nonzero"/><path fill="#001f3d" d="M 247.714844 123.234375 L 219.105469 123.234375 C 217.523438 123.234375 216.242188 121.953125 216.242188 120.375 C 216.242188 118.796875 217.523438 117.515625 219.105469 117.515625 L 247.714844 117.515625 C 249.296875 117.515625 250.578125 118.796875 250.578125 120.375 C 250.578125 121.953125 249.296875 123.234375 247.714844 123.234375 Z M 247.714844 123.234375 " fill-opacity="1" fill-rule="nonzero"/><path fill="#001f3d" d="M 207.660156 123.234375 L 199.074219 123.234375 C 197.496094 123.234375 196.214844 121.953125 196.214844 120.375 C 196.214844 118.796875 197.496094 117.515625 199.074219 117.515625 L 207.660156 117.515625 C 209.238281 117.515625 210.519531 118.796875 210.519531 120.375 C 210.519531 121.953125 209.238281 123.234375 207.660156 123.234375 Z M 207.660156 123.234375 " fill-opacity="1" fill-rule="nonzero"/><g fill="#fa9939" fill-opacity="1"><g transform="translate(-1.874697, 269.157691)"><g><path d="M 32.03125 -6.34375 C 32.976562 -6.34375 33.757812 -6.046875 34.375 -5.453125 C 34.988281 -4.867188 35.296875 -4.097656 35.296875 -3.140625 C 35.296875 -2.234375 34.988281 -1.484375 34.375 -0.890625 C 33.757812 -0.296875 32.976562 0 32.03125 0 L 8.9375 0 C 7.988281 0 7.207031 -0.316406 6.59375 -0.953125 C 5.976562 -1.585938 5.671875 -2.363281 5.671875 -3.28125 L 5.671875 -44.515625 C 5.671875 -45.429688 5.988281 -46.207031 6.625 -46.84375 C 7.257812 -47.476562 8.078125 -47.796875 9.078125 -47.796875 C 9.992188 -47.796875 10.78125 -47.476562 11.4375 -46.84375 C 12.09375 -46.207031 12.421875 -45.429688 12.421875 -44.515625 L 12.421875 -6.34375 Z M 32.03125 -6.34375 "/></g></g></g><g fill="#fa9939" fill-opacity="1"><g transform="translate(35.678069, 269.157691)"><g><path d="M 31.484375 -35.78125 C 32.429688 -35.78125 33.210938 -35.460938 33.828125 -34.828125 C 34.441406 -34.191406 34.75 -33.414062 34.75 -32.5 L 34.75 -14.34375 C 34.75 -9.601562 33.441406 -5.925781 30.828125 -3.3125 C 28.210938 -0.695312 24.515625 0.609375 19.734375 0.609375 C 14.992188 0.609375 11.328125 -0.695312 8.734375 -3.3125 C 6.140625 -5.925781 4.84375 -9.601562 4.84375 -14.34375 L 4.84375 -32.5 C 4.84375 -33.414062 5.148438 -34.191406 5.765625 -34.828125 C 6.378906 -35.460938 7.144531 -35.78125 8.0625 -35.78125 C 9.007812 -35.78125 9.789062 -35.460938 10.40625 -34.828125 C 11.019531 -34.191406 11.328125 -33.414062 11.328125 -32.5 L 11.328125 -14.34375 C 11.328125 -8.375 14.128906 -5.390625 19.734375 -5.390625 C 22.503906 -5.390625 24.617188 -6.140625 26.078125 -7.640625 C 27.535156 -9.148438 28.265625 -11.382812 28.265625 -14.34375 L 28.265625 -32.5 C 28.265625 -33.414062 28.570312 -34.191406 29.1875 -34.828125 C 29.800781 -35.460938 30.566406 -35.78125 31.484375 -35.78125 Z M 31.484375 -35.78125 "/></g></g></g><g fill="#fa9939" fill-opacity="1"><g transform="translate(75.27916, 269.157691)"><g><path d="M 11 -3.28125 C 11 -2.363281 10.691406 -1.585938 10.078125 -0.953125 C 9.460938 -0.316406 8.675781 0 7.71875 0 C 6.800781 0 6.035156 -0.316406 5.421875 -0.953125 C 4.804688 -1.585938 4.5 -2.363281 4.5 -3.28125 L 4.5 -32.84375 C 4.5 -33.75 4.804688 -34.519531 5.421875 -35.15625 C 6.035156 -35.800781 6.800781 -36.125 7.71875 -36.125 C 8.675781 -36.125 9.460938 -35.800781 10.078125 -35.15625 C 10.691406 -34.519531 11 -33.75 11 -32.84375 Z M 7.71875 -40.625 C 6.394531 -40.625 5.445312 -40.863281 4.875 -41.34375 C 4.3125 -41.820312 4.03125 -42.582031 4.03125 -43.625 L 4.03125 -44.71875 C 4.03125 -45.8125 4.335938 -46.585938 4.953125 -47.046875 C 5.566406 -47.503906 6.507812 -47.734375 7.78125 -47.734375 C 9.050781 -47.734375 9.972656 -47.492188 10.546875 -47.015625 C 11.117188 -46.535156 11.40625 -45.769531 11.40625 -44.71875 L 11.40625 -43.625 C 11.40625 -42.539062 11.109375 -41.769531 10.515625 -41.3125 C 9.921875 -40.851562 8.988281 -40.625 7.71875 -40.625 Z M 7.71875 -40.625 "/></g></g></g><g fill="#fa9939" fill-opacity="1"><g transform="translate(90.778201, 269.157691)"><g><path d="M 2.796875 -5.59375 C 2.390625 -6.238281 2.1875 -6.851562 2.1875 -7.4375 C 2.1875 -8.351562 2.664062 -9.128906 3.625 -9.765625 C 4.070312 -10.078125 4.59375 -10.234375 5.1875 -10.234375 C 6.007812 -10.234375 6.757812 -9.894531 7.4375 -9.21875 C 8.800781 -7.664062 10.269531 -6.503906 11.84375 -5.734375 C 13.414062 -4.960938 15.296875 -4.578125 17.484375 -4.578125 C 19.210938 -4.617188 20.734375 -5.015625 22.046875 -5.765625 C 23.367188 -6.515625 24.03125 -7.734375 24.03125 -9.421875 C 24.03125 -10.972656 23.359375 -12.15625 22.015625 -12.96875 C 20.671875 -13.789062 18.703125 -14.546875 16.109375 -15.234375 C 13.566406 -15.910156 11.453125 -16.625 9.765625 -17.375 C 8.078125 -18.125 6.648438 -19.21875 5.484375 -20.65625 C 4.328125 -22.09375 3.75 -23.96875 3.75 -26.28125 C 3.75 -28.332031 4.328125 -30.128906 5.484375 -31.671875 C 6.648438 -33.222656 8.203125 -34.429688 10.140625 -35.296875 C 12.078125 -36.160156 14.179688 -36.59375 16.453125 -36.59375 C 18.640625 -36.59375 20.8125 -36.179688 22.96875 -35.359375 C 25.132812 -34.546875 26.898438 -33.296875 28.265625 -31.609375 C 28.816406 -30.972656 29.09375 -30.316406 29.09375 -29.640625 C 29.09375 -28.910156 28.726562 -28.203125 28 -27.515625 C 27.539062 -27.109375 26.96875 -26.90625 26.28125 -26.90625 C 25.46875 -26.90625 24.8125 -27.175781 24.3125 -27.71875 C 23.351562 -28.8125 22.175781 -29.65625 20.78125 -30.25 C 19.394531 -30.84375 17.863281 -31.140625 16.1875 -31.140625 C 14.457031 -31.140625 12.988281 -30.785156 11.78125 -30.078125 C 10.570312 -29.367188 9.96875 -28.175781 9.96875 -26.5 C 10.007812 -24.90625 10.703125 -23.71875 12.046875 -22.9375 C 13.390625 -22.164062 15.453125 -21.414062 18.234375 -20.6875 C 20.640625 -20.050781 22.640625 -19.367188 24.234375 -18.640625 C 25.828125 -17.910156 27.171875 -16.828125 28.265625 -15.390625 C 29.359375 -13.960938 29.90625 -12.085938 29.90625 -9.765625 C 29.90625 -7.628906 29.289062 -5.773438 28.0625 -4.203125 C 26.832031 -2.628906 25.226562 -1.421875 23.25 -0.578125 C 21.269531 0.265625 19.164062 0.6875 16.9375 0.6875 C 14.0625 0.6875 11.40625 0.1875 8.96875 -0.8125 C 6.539062 -1.820312 4.484375 -3.414062 2.796875 -5.59375 Z M 2.796875 -5.59375 "/></g></g></g><g fill="#fa9939" fill-opacity="1"><g transform="translate(123.346698, 269.157691)"><g><path d="M 33.875 -36.25 C 34.820312 -36.25 35.601562 -35.941406 36.21875 -35.328125 C 36.832031 -34.710938 37.140625 -33.90625 37.140625 -32.90625 L 37.140625 -3.28125 C 37.140625 -2.363281 36.832031 -1.585938 36.21875 -0.953125 C 35.601562 -0.316406 34.820312 0 33.875 0 C 32.914062 0 32.140625 -0.304688 31.546875 -0.921875 C 30.953125 -1.535156 30.65625 -2.320312 30.65625 -3.28125 L 30.65625 -5.046875 C 29.476562 -3.453125 27.863281 -2.097656 25.8125 -0.984375 C 23.757812 0.128906 21.550781 0.6875 19.1875 0.6875 C 16.09375 0.6875 13.28125 -0.109375 10.75 -1.703125 C 8.226562 -3.296875 6.25 -5.515625 4.8125 -8.359375 C 3.375 -11.203125 2.65625 -14.398438 2.65625 -17.953125 C 2.65625 -21.503906 3.375 -24.703125 4.8125 -27.546875 C 6.25 -30.390625 8.21875 -32.609375 10.71875 -34.203125 C 13.21875 -35.796875 15.972656 -36.59375 18.984375 -36.59375 C 21.390625 -36.59375 23.628906 -36.09375 25.703125 -35.09375 C 27.773438 -34.09375 29.425781 -32.816406 30.65625 -31.265625 L 30.65625 -32.90625 C 30.65625 -33.863281 30.953125 -34.660156 31.546875 -35.296875 C 32.140625 -35.929688 32.914062 -36.25 33.875 -36.25 Z M 19.9375 -5.328125 C 22.070312 -5.328125 23.96875 -5.875 25.625 -6.96875 C 27.289062 -8.0625 28.59375 -9.5625 29.53125 -11.46875 C 30.46875 -13.382812 30.9375 -15.546875 30.9375 -17.953125 C 30.9375 -20.328125 30.46875 -22.46875 29.53125 -24.375 C 28.59375 -26.289062 27.289062 -27.804688 25.625 -28.921875 C 23.96875 -30.035156 22.070312 -30.59375 19.9375 -30.59375 C 17.800781 -30.59375 15.898438 -30.046875 14.234375 -28.953125 C 12.578125 -27.859375 11.28125 -26.351562 10.34375 -24.4375 C 9.40625 -22.53125 8.9375 -20.367188 8.9375 -17.953125 C 8.9375 -15.546875 9.40625 -13.382812 10.34375 -11.46875 C 11.28125 -9.5625 12.578125 -8.0625 14.234375 -6.96875 C 15.898438 -5.875 17.800781 -5.328125 19.9375 -5.328125 Z M 19.9375 -5.328125 "/></g></g></g><g fill="#fa9939" fill-opacity="1"><g transform="translate(165.269241, 269.157691)"><g/></g></g><g fill="#fa9939" fill-opacity="1"><g transform="translate(184.182177, 269.157691)"><g><path d="M 32.03125 -6.34375 C 32.976562 -6.34375 33.757812 -6.046875 34.375 -5.453125 C 34.988281 -4.867188 35.296875 -4.097656 35.296875 -3.140625 C 35.296875 -2.234375 34.988281 -1.484375 34.375 -0.890625 C 33.757812 -0.296875 32.976562 0 32.03125 0 L 8.9375 0 C 7.988281 0 7.207031 -0.316406 6.59375 -0.953125 C 5.976562 -1.585938 5.671875 -2.363281 5.671875 -3.28125 L 5.671875 -44.515625 C 5.671875 -45.429688 5.988281 -46.207031 6.625 -46.84375 C 7.257812 -47.476562 8.078125 -47.796875 9.078125 -47.796875 C 9.992188 -47.796875 10.78125 -47.476562 11.4375 -46.84375 C 12.09375 -46.207031 12.421875 -45.429688 12.421875 -44.515625 L 12.421875 -6.34375 Z M 32.03125 -6.34375 "/></g></g></g><g fill="#fa9939" fill-opacity="1"><g transform="translate(221.734943, 269.157691)"><g><path d="M 38.71875 -17.890625 C 38.71875 -14.335938 37.921875 -11.148438 36.328125 -8.328125 C 34.734375 -5.503906 32.554688 -3.296875 29.796875 -1.703125 C 27.046875 -0.109375 24.007812 0.6875 20.6875 0.6875 C 17.363281 0.6875 14.320312 -0.109375 11.5625 -1.703125 C 8.8125 -3.296875 6.640625 -5.503906 5.046875 -8.328125 C 3.453125 -11.148438 2.65625 -14.335938 2.65625 -17.890625 C 2.65625 -21.441406 3.453125 -24.648438 5.046875 -27.515625 C 6.640625 -30.378906 8.8125 -32.609375 11.5625 -34.203125 C 14.320312 -35.796875 17.363281 -36.59375 20.6875 -36.59375 C 24.007812 -36.59375 27.046875 -35.796875 29.796875 -34.203125 C 32.554688 -32.609375 34.734375 -30.378906 36.328125 -27.515625 C 37.921875 -24.648438 38.71875 -21.441406 38.71875 -17.890625 Z M 32.234375 -17.890625 C 32.234375 -20.347656 31.71875 -22.539062 30.6875 -24.46875 C 29.664062 -26.40625 28.273438 -27.910156 26.515625 -28.984375 C 24.765625 -30.054688 22.820312 -30.59375 20.6875 -30.59375 C 18.550781 -30.59375 16.601562 -30.054688 14.84375 -28.984375 C 13.09375 -27.910156 11.707031 -26.40625 10.6875 -24.46875 C 9.664062 -22.539062 9.15625 -20.347656 9.15625 -17.890625 C 9.15625 -15.472656 9.664062 -13.304688 10.6875 -11.390625 C 11.707031 -9.484375 13.09375 -7.992188 14.84375 -6.921875 C 16.601562 -5.859375 18.550781 -5.328125 20.6875 -5.328125 C 22.820312 -5.328125 24.765625 -5.859375 26.515625 -6.921875 C 28.273438 -7.992188 29.664062 -9.484375 30.6875 -11.390625 C 31.71875 -13.304688 32.234375 -15.472656 32.234375 -17.890625 Z M 20.484375 -38.5 C 20.117188 -38.5 19.726562 -38.660156 19.3125 -38.984375 C 18.90625 -39.304688 18.726562 -39.738281 18.78125 -40.28125 C 18.78125 -40.644531 18.914062 -41.054688 19.1875 -41.515625 L 23.21875 -48.265625 C 23.582031 -48.898438 24.023438 -49.421875 24.546875 -49.828125 C 25.066406 -50.242188 25.671875 -50.453125 26.359375 -50.453125 C 27.359375 -50.453125 28.117188 -50.191406 28.640625 -49.671875 C 29.171875 -49.148438 29.410156 -48.457031 29.359375 -47.59375 C 29.359375 -46.769531 29.019531 -45.972656 28.34375 -45.203125 L 23.21875 -39.59375 C 22.488281 -38.863281 21.578125 -38.5 20.484375 -38.5 Z M 20.484375 -38.5 "/></g></g></g><g fill="#fa9939" fill-opacity="1"><g transform="translate(263.111253, 269.157691)"><g><path d="M 22.8125 -36.390625 C 25.90625 -36.390625 28.703125 -35.601562 31.203125 -34.03125 C 33.703125 -32.46875 35.671875 -30.273438 37.109375 -27.453125 C 38.546875 -24.628906 39.265625 -21.441406 39.265625 -17.890625 C 39.265625 -14.335938 38.546875 -11.160156 37.109375 -8.359375 C 35.671875 -5.566406 33.703125 -3.375 31.203125 -1.78125 C 28.703125 -0.1875 25.945312 0.609375 22.9375 0.609375 C 20.570312 0.609375 18.363281 0.0859375 16.3125 -0.953125 C 14.269531 -2.003906 12.609375 -3.28125 11.328125 -4.78125 L 11.328125 10.375 C 11.328125 11.289062 11.019531 12.066406 10.40625 12.703125 C 9.789062 13.335938 9.007812 13.65625 8.0625 13.65625 C 7.144531 13.65625 6.378906 13.347656 5.765625 12.734375 C 5.148438 12.117188 4.84375 11.332031 4.84375 10.375 L 4.84375 -32.5625 C 4.84375 -33.519531 5.140625 -34.316406 5.734375 -34.953125 C 6.328125 -35.597656 7.101562 -35.921875 8.0625 -35.921875 C 9.007812 -35.921875 9.789062 -35.597656 10.40625 -34.953125 C 11.019531 -34.316406 11.328125 -33.519531 11.328125 -32.5625 L 11.328125 -30.59375 C 12.421875 -32.1875 14.015625 -33.550781 16.109375 -34.6875 C 18.203125 -35.820312 20.4375 -36.390625 22.8125 -36.390625 Z M 22.0625 -5.390625 C 24.15625 -5.390625 26.039062 -5.9375 27.71875 -7.03125 C 29.40625 -8.125 30.710938 -9.613281 31.640625 -11.5 C 32.578125 -13.394531 33.046875 -15.523438 33.046875 -17.890625 C 33.046875 -20.253906 32.578125 -22.378906 31.640625 -24.265625 C 30.710938 -26.160156 29.40625 -27.65625 27.71875 -28.75 C 26.039062 -29.84375 24.15625 -30.390625 22.0625 -30.390625 C 19.914062 -30.390625 18 -29.851562 16.3125 -28.78125 C 14.632812 -27.707031 13.328125 -26.210938 12.390625 -24.296875 C 11.460938 -22.390625 11 -20.253906 11 -17.890625 C 11 -15.523438 11.460938 -13.382812 12.390625 -11.46875 C 13.328125 -9.5625 14.632812 -8.070312 16.3125 -7 C 18 -5.925781 19.914062 -5.390625 22.0625 -5.390625 Z M 22.0625 -5.390625 "/></g></g></g><g fill="#fa9939" fill-opacity="1"><g transform="translate(305.033796, 269.157691)"><g><path d="M 36.25 -19.25 C 36.207031 -18.4375 35.867188 -17.742188 35.234375 -17.171875 C 34.597656 -16.597656 33.847656 -16.3125 32.984375 -16.3125 L 8.9375 -16.3125 C 9.257812 -12.988281 10.523438 -10.328125 12.734375 -8.328125 C 14.941406 -6.328125 17.640625 -5.328125 20.828125 -5.328125 C 23.015625 -5.328125 24.789062 -5.644531 26.15625 -6.28125 C 27.519531 -6.914062 28.722656 -7.734375 29.765625 -8.734375 C 30.453125 -9.148438 31.113281 -9.359375 31.75 -9.359375 C 32.519531 -9.359375 33.164062 -9.082031 33.6875 -8.53125 C 34.21875 -7.988281 34.484375 -7.351562 34.484375 -6.625 C 34.484375 -5.664062 34.023438 -4.800781 33.109375 -4.03125 C 31.796875 -2.707031 30.046875 -1.585938 27.859375 -0.671875 C 25.671875 0.234375 23.441406 0.6875 21.171875 0.6875 C 17.484375 0.6875 14.238281 -0.0820312 11.4375 -1.625 C 8.632812 -3.175781 6.46875 -5.34375 4.9375 -8.125 C 3.414062 -10.90625 2.65625 -14.046875 2.65625 -17.546875 C 2.65625 -21.367188 3.441406 -24.722656 5.015625 -27.609375 C 6.585938 -30.503906 8.660156 -32.722656 11.234375 -34.265625 C 13.804688 -35.816406 16.570312 -36.59375 19.53125 -36.59375 C 22.4375 -36.59375 25.164062 -35.84375 27.71875 -34.34375 C 30.269531 -32.84375 32.316406 -30.769531 33.859375 -28.125 C 35.410156 -25.488281 36.207031 -22.53125 36.25 -19.25 Z M 19.53125 -30.59375 C 16.976562 -30.59375 14.769531 -29.875 12.90625 -28.4375 C 11.039062 -27 9.8125 -24.78125 9.21875 -21.78125 L 29.359375 -21.78125 L 29.359375 -22.328125 C 29.128906 -24.742188 28.046875 -26.722656 26.109375 -28.265625 C 24.179688 -29.816406 21.988281 -30.59375 19.53125 -30.59375 Z M 19.53125 -30.59375 "/></g></g></g><g fill="#fa9939" fill-opacity="1"><g transform="translate(343.952112, 269.157691)"><g><path d="M 27.515625 -6.015625 C 28.378906 -6.015625 29.109375 -5.726562 29.703125 -5.15625 C 30.296875 -4.582031 30.59375 -3.863281 30.59375 -3 C 30.59375 -2.132812 30.296875 -1.414062 29.703125 -0.84375 C 29.109375 -0.28125 28.378906 0 27.515625 0 L 5.46875 0 C 4.601562 0 3.882812 -0.316406 3.3125 -0.953125 C 2.738281 -1.585938 2.453125 -2.25 2.453125 -2.9375 C 2.503906 -3.53125 2.597656 -4.019531 2.734375 -4.40625 C 2.867188 -4.789062 3.117188 -5.234375 3.484375 -5.734375 L 21.375 -29.640625 L 6.5625 -29.640625 C 5.6875 -29.640625 4.953125 -29.929688 4.359375 -30.515625 C 3.773438 -31.109375 3.484375 -31.835938 3.484375 -32.703125 C 3.484375 -33.566406 3.765625 -34.269531 4.328125 -34.8125 C 4.898438 -35.363281 5.644531 -35.640625 6.5625 -35.640625 L 27.515625 -35.640625 C 28.378906 -35.640625 29.09375 -35.320312 29.65625 -34.6875 C 30.226562 -34.050781 30.492188 -33.273438 30.453125 -32.359375 C 30.410156 -31.910156 30.332031 -31.515625 30.21875 -31.171875 C 30.101562 -30.828125 29.863281 -30.453125 29.5 -30.046875 L 11.46875 -6.015625 Z M 27.515625 -6.015625 "/></g></g></g><g fill="#fa9939" fill-opacity="1"><g transform="translate(73.163938, 299.080169)"><g><path d="M 16.84375 0 L 14.9375 0 L 11.5625 -11.171875 C 11.40625 -11.660156 11.226562 -12.28125 11.03125 -13.03125 C 10.832031 -13.789062 10.726562 -14.242188 10.71875 -14.390625 C 10.550781 -13.390625 10.285156 -12.289062 9.921875 -11.09375 L 6.65625 0 L 4.75 0 L 0.3125 -16.671875 L 2.359375 -16.671875 L 5 -6.375 C 5.363281 -4.925781 5.628906 -3.617188 5.796875 -2.453125 C 6.003906 -3.847656 6.304688 -5.207031 6.703125 -6.53125 L 9.6875 -16.671875 L 11.75 -16.671875 L 14.890625 -6.4375 C 15.253906 -5.257812 15.5625 -3.929688 15.8125 -2.453125 C 15.957031 -3.535156 16.226562 -4.851562 16.625 -6.40625 L 19.25 -16.671875 L 21.3125 -16.671875 Z M 16.84375 0 "/></g></g></g><g fill="#fa9939" fill-opacity="1"><g transform="translate(99.926349, 299.080169)"><g><path d="M 7.28125 0.234375 C 5.4375 0.234375 3.976562 -0.328125 2.90625 -1.453125 C 1.84375 -2.578125 1.3125 -4.140625 1.3125 -6.140625 C 1.3125 -8.160156 1.804688 -9.765625 2.796875 -10.953125 C 3.785156 -12.140625 5.117188 -12.734375 6.796875 -12.734375 C 8.359375 -12.734375 9.597656 -12.21875 10.515625 -11.1875 C 11.429688 -10.15625 11.890625 -8.796875 11.890625 -7.109375 L 11.890625 -5.90625 L 3.28125 -5.90625 C 3.3125 -4.4375 3.675781 -3.320312 4.375 -2.5625 C 5.082031 -1.800781 6.078125 -1.421875 7.359375 -1.421875 C 8.703125 -1.421875 10.03125 -1.703125 11.34375 -2.265625 L 11.34375 -0.578125 C 10.675781 -0.285156 10.039062 -0.078125 9.4375 0.046875 C 8.84375 0.171875 8.125 0.234375 7.28125 0.234375 Z M 6.78125 -11.140625 C 5.769531 -11.140625 4.96875 -10.8125 4.375 -10.15625 C 3.78125 -9.507812 3.425781 -8.609375 3.3125 -7.453125 L 9.859375 -7.453125 C 9.859375 -8.640625 9.59375 -9.550781 9.0625 -10.1875 C 8.53125 -10.820312 7.769531 -11.140625 6.78125 -11.140625 Z M 6.78125 -11.140625 "/></g></g></g><g fill="#fa9939" fill-opacity="1"><g transform="translate(118.169786, 299.080169)"><g><path d="M 7.828125 -12.703125 C 9.460938 -12.703125 10.734375 -12.140625 11.640625 -11.015625 C 12.554688 -9.898438 13.015625 -8.316406 13.015625 -6.265625 C 13.015625 -4.210938 12.554688 -2.613281 11.640625 -1.46875 C 10.722656 -0.332031 9.453125 0.234375 7.828125 0.234375 C 7.015625 0.234375 6.269531 0.0820312 5.59375 -0.21875 C 4.914062 -0.519531 4.351562 -0.984375 3.90625 -1.609375 L 3.765625 -1.609375 L 3.359375 0 L 2 0 L 2 -17.75 L 3.90625 -17.75 L 3.90625 -13.4375 C 3.90625 -12.46875 3.875 -11.597656 3.8125 -10.828125 L 3.90625 -10.828125 C 4.78125 -12.078125 6.085938 -12.703125 7.828125 -12.703125 Z M 7.546875 -11.125 C 6.253906 -11.125 5.320312 -10.75 4.75 -10 C 4.1875 -9.257812 3.90625 -8.015625 3.90625 -6.265625 C 3.90625 -4.503906 4.195312 -3.242188 4.78125 -2.484375 C 5.363281 -1.734375 6.300781 -1.359375 7.59375 -1.359375 C 8.757812 -1.359375 9.625 -1.78125 10.1875 -2.625 C 10.757812 -3.476562 11.046875 -4.695312 11.046875 -6.28125 C 11.046875 -7.90625 10.757812 -9.117188 10.1875 -9.921875 C 9.625 -10.722656 8.742188 -11.125 7.546875 -11.125 Z M 7.546875 -11.125 "/></g></g></g><g fill="#fa9939" fill-opacity="1"><g transform="translate(137.622075, 299.080169)"><g/></g></g><g fill="#fa9939" fill-opacity="1"><g transform="translate(148.829071, 299.080169)"><g><path d="M 15.609375 -8.5 C 15.609375 -5.75 14.859375 -3.644531 13.359375 -2.1875 C 11.867188 -0.726562 9.71875 0 6.90625 0 L 2.296875 0 L 2.296875 -16.671875 L 7.40625 -16.671875 C 10 -16.671875 12.015625 -15.953125 13.453125 -14.515625 C 14.890625 -13.078125 15.609375 -11.070312 15.609375 -8.5 Z M 13.546875 -8.421875 C 13.546875 -10.597656 13 -12.238281 11.90625 -13.34375 C 10.820312 -14.445312 9.203125 -15 7.046875 -15 L 4.234375 -15 L 4.234375 -1.671875 L 6.59375 -1.671875 C 8.90625 -1.671875 10.640625 -2.238281 11.796875 -3.375 C 12.960938 -4.519531 13.546875 -6.203125 13.546875 -8.421875 Z M 13.546875 -8.421875 "/></g></g></g><g fill="#fa9939" fill-opacity="1"><g transform="translate(170.995575, 299.080169)"><g><path d="M 7.28125 0.234375 C 5.4375 0.234375 3.976562 -0.328125 2.90625 -1.453125 C 1.84375 -2.578125 1.3125 -4.140625 1.3125 -6.140625 C 1.3125 -8.160156 1.804688 -9.765625 2.796875 -10.953125 C 3.785156 -12.140625 5.117188 -12.734375 6.796875 -12.734375 C 8.359375 -12.734375 9.597656 -12.21875 10.515625 -11.1875 C 11.429688 -10.15625 11.890625 -8.796875 11.890625 -7.109375 L 11.890625 -5.90625 L 3.28125 -5.90625 C 3.3125 -4.4375 3.675781 -3.320312 4.375 -2.5625 C 5.082031 -1.800781 6.078125 -1.421875 7.359375 -1.421875 C 8.703125 -1.421875 10.03125 -1.703125 11.34375 -2.265625 L 11.34375 -0.578125 C 10.675781 -0.285156 10.039062 -0.078125 9.4375 0.046875 C 8.84375 0.171875 8.125 0.234375 7.28125 0.234375 Z M 6.78125 -11.140625 C 5.769531 -11.140625 4.96875 -10.8125 4.375 -10.15625 C 3.78125 -9.507812 3.425781 -8.609375 3.3125 -7.453125 L 9.859375 -7.453125 C 9.859375 -8.640625 9.59375 -9.550781 9.0625 -10.1875 C 8.53125 -10.820312 7.769531 -11.140625 6.78125 -11.140625 Z M 6.78125 -11.140625 "/></g></g></g><g fill="#fa9939" fill-opacity="1"><g transform="translate(189.239012, 299.080169)"><g><path d="M 4.75 0 L 0 -12.5 L 2.03125 -12.5 L 4.71875 -5.09375 C 5.332031 -3.351562 5.691406 -2.222656 5.796875 -1.703125 L 5.890625 -1.703125 C 5.972656 -2.109375 6.234375 -2.941406 6.671875 -4.203125 C 7.117188 -5.472656 8.117188 -8.238281 9.671875 -12.5 L 11.703125 -12.5 L 6.953125 0 Z M 4.75 0 "/></g></g></g><g fill="#fa9939" fill-opacity="1"><g transform="translate(206.079714, 299.080169)"><g><path d="M 7.28125 0.234375 C 5.4375 0.234375 3.976562 -0.328125 2.90625 -1.453125 C 1.84375 -2.578125 1.3125 -4.140625 1.3125 -6.140625 C 1.3125 -8.160156 1.804688 -9.765625 2.796875 -10.953125 C 3.785156 -12.140625 5.117188 -12.734375 6.796875 -12.734375 C 8.359375 -12.734375 9.597656 -12.21875 10.515625 -11.1875 C 11.429688 -10.15625 11.890625 -8.796875 11.890625 -7.109375 L 11.890625 -5.90625 L 3.28125 -5.90625 C 3.3125 -4.4375 3.675781 -3.320312 4.375 -2.5625 C 5.082031 -1.800781 6.078125 -1.421875 7.359375 -1.421875 C 8.703125 -1.421875 10.03125 -1.703125 11.34375 -2.265625 L 11.34375 -0.578125 C 10.675781 -0.285156 10.039062 -0.078125 9.4375 0.046875 C 8.84375 0.171875 8.125 0.234375 7.28125 0.234375 Z M 6.78125 -11.140625 C 5.769531 -11.140625 4.96875 -10.8125 4.375 -10.15625 C 3.78125 -9.507812 3.425781 -8.609375 3.3125 -7.453125 L 9.859375 -7.453125 C 9.859375 -8.640625 9.59375 -9.550781 9.0625 -10.1875 C 8.53125 -10.820312 7.769531 -11.140625 6.78125 -11.140625 Z M 6.78125 -11.140625 "/></g></g></g><g fill="#fa9939" fill-opacity="1"><g transform="translate(224.323151, 299.080169)"><g><path d="M 3.90625 0 L 2 0 L 2 -17.75 L 3.90625 -17.75 Z M 3.90625 0 "/></g></g></g><g fill="#fa9939" fill-opacity="1"><g transform="translate(235.370488, 299.080169)"><g><path d="M 12.796875 -6.265625 C 12.796875 -4.222656 12.28125 -2.628906 11.25 -1.484375 C 10.226562 -0.335938 8.8125 0.234375 7 0.234375 C 5.882812 0.234375 4.890625 -0.0234375 4.015625 -0.546875 C 3.148438 -1.078125 2.484375 -1.832031 2.015625 -2.8125 C 1.546875 -3.789062 1.3125 -4.941406 1.3125 -6.265625 C 1.3125 -8.296875 1.820312 -9.878906 2.84375 -11.015625 C 3.863281 -12.160156 5.273438 -12.734375 7.078125 -12.734375 C 8.828125 -12.734375 10.21875 -12.148438 11.25 -10.984375 C 12.28125 -9.816406 12.796875 -8.242188 12.796875 -6.265625 Z M 3.28125 -6.265625 C 3.28125 -4.660156 3.597656 -3.441406 4.234375 -2.609375 C 4.867188 -1.773438 5.804688 -1.359375 7.046875 -1.359375 C 8.285156 -1.359375 9.222656 -1.773438 9.859375 -2.609375 C 10.503906 -3.441406 10.828125 -4.660156 10.828125 -6.265625 C 10.828125 -7.847656 10.503906 -9.050781 9.859375 -9.875 C 9.222656 -10.707031 8.28125 -11.125 7.03125 -11.125 C 5.789062 -11.125 4.851562 -10.71875 4.21875 -9.90625 C 3.59375 -9.09375 3.28125 -7.878906 3.28125 -6.265625 Z M 3.28125 -6.265625 "/></g></g></g><g fill="#fa9939" fill-opacity="1"><g transform="translate(254.6175, 299.080169)"><g><path d="M 7.828125 0.234375 C 7.015625 0.234375 6.269531 0.0820312 5.59375 -0.21875 C 4.914062 -0.519531 4.351562 -0.984375 3.90625 -1.609375 L 3.765625 -1.609375 C 3.859375 -0.878906 3.90625 -0.1875 3.90625 0.46875 L 3.90625 5.609375 L 2 5.609375 L 2 -12.5 L 3.546875 -12.5 L 3.8125 -10.796875 L 3.90625 -10.796875 C 4.382812 -11.472656 4.945312 -11.960938 5.59375 -12.265625 C 6.238281 -12.578125 6.984375 -12.734375 7.828125 -12.734375 C 9.484375 -12.734375 10.757812 -12.164062 11.65625 -11.03125 C 12.5625 -9.894531 13.015625 -8.304688 13.015625 -6.265625 C 13.015625 -4.210938 12.554688 -2.613281 11.640625 -1.46875 C 10.722656 -0.332031 9.453125 0.234375 7.828125 0.234375 Z M 7.546875 -11.125 C 6.273438 -11.125 5.351562 -10.769531 4.78125 -10.0625 C 4.207031 -9.351562 3.914062 -8.226562 3.90625 -6.6875 L 3.90625 -6.265625 C 3.90625 -4.503906 4.195312 -3.242188 4.78125 -2.484375 C 5.363281 -1.734375 6.300781 -1.359375 7.59375 -1.359375 C 8.675781 -1.359375 9.519531 -1.796875 10.125 -2.671875 C 10.738281 -3.546875 11.046875 -4.75 11.046875 -6.28125 C 11.046875 -7.84375 10.738281 -9.039062 10.125 -9.875 C 9.519531 -10.707031 8.660156 -11.125 7.546875 -11.125 Z M 7.546875 -11.125 "/></g></g></g><g fill="#fa9939" fill-opacity="1"><g transform="translate(274.069778, 299.080169)"><g><path d="M 7.28125 0.234375 C 5.4375 0.234375 3.976562 -0.328125 2.90625 -1.453125 C 1.84375 -2.578125 1.3125 -4.140625 1.3125 -6.140625 C 1.3125 -8.160156 1.804688 -9.765625 2.796875 -10.953125 C 3.785156 -12.140625 5.117188 -12.734375 6.796875 -12.734375 C 8.359375 -12.734375 9.597656 -12.21875 10.515625 -11.1875 C 11.429688 -10.15625 11.890625 -8.796875 11.890625 -7.109375 L 11.890625 -5.90625 L 3.28125 -5.90625 C 3.3125 -4.4375 3.675781 -3.320312 4.375 -2.5625 C 5.082031 -1.800781 6.078125 -1.421875 7.359375 -1.421875 C 8.703125 -1.421875 10.03125 -1.703125 11.34375 -2.265625 L 11.34375 -0.578125 C 10.675781 -0.285156 10.039062 -0.078125 9.4375 0.046875 C 8.84375 0.171875 8.125 0.234375 7.28125 0.234375 Z M 6.78125 -11.140625 C 5.769531 -11.140625 4.96875 -10.8125 4.375 -10.15625 C 3.78125 -9.507812 3.425781 -8.609375 3.3125 -7.453125 L 9.859375 -7.453125 C 9.859375 -8.640625 9.59375 -9.550781 9.0625 -10.1875 C 8.53125 -10.820312 7.769531 -11.140625 6.78125 -11.140625 Z M 6.78125 -11.140625 "/></g></g></g><g fill="#fa9939" fill-opacity="1"><g transform="translate(292.313205, 299.080169)"><g><path d="M 7.703125 -12.734375 C 8.265625 -12.734375 8.765625 -12.6875 9.203125 -12.59375 L 8.9375 -10.828125 C 8.425781 -10.941406 7.972656 -11 7.578125 -11 C 6.566406 -11 5.703125 -10.585938 4.984375 -9.765625 C 4.265625 -8.953125 3.90625 -7.929688 3.90625 -6.703125 L 3.90625 0 L 2 0 L 2 -12.5 L 3.5625 -12.5 L 3.78125 -10.1875 L 3.875 -10.1875 C 4.34375 -11 4.898438 -11.625 5.546875 -12.0625 C 6.203125 -12.507812 6.921875 -12.734375 7.703125 -12.734375 Z M 7.703125 -12.734375 "/></g></g></g></svg>